<?xml version="1.0" encoding="UTF-8"?>
<svg version="1.1" xmlns="http://www.w3.org/2000/svg" width="318" height="318">
<path d="M0 0 C1.91703735 -0.00472824 1.91703735 -0.00472824 3.87280273 -0.009552 C5.27848342 -0.00776222 6.6841638 -0.00571127 8.08984375 -0.00341797 C9.52091488 -0.00409105 10.9519859 -0.00506111 12.38305664 -0.00631714 C15.38591599 -0.00779391 18.38874565 -0.00564023 21.39160156 -0.00097656 C25.24886946 0.00472073 29.10606779 0.00144161 32.96333313 -0.00454903 C35.91947966 -0.00815521 38.87560958 -0.00701579 41.83175659 -0.00442123 C43.25438444 -0.00375212 44.67701378 -0.00457984 46.09963989 -0.00690079 C48.08465549 -0.0094282 50.06967634 -0.00489589 52.0546875 0 C53.75226196 0.00119339 53.75226196 0.00119339 55.48413086 0.00241089 C58.02734375 0.12939453 58.02734375 0.12939453 59.02734375 1.12939453 C59.12110428 2.93994479 59.14478485 4.75416655 59.14086914 6.56713867 C59.14075584 8.3088308 59.14075584 8.3088308 59.14064026 10.08570862 C59.13547897 11.34922653 59.13031769 12.61274445 59.125 13.91455078 C59.12358505 15.20050644 59.1221701 16.4864621 59.12071228 17.81138611 C59.11688793 21.23582896 59.10705837 24.66022962 59.0960083 28.08465576 C59.08579239 31.57677632 59.08115957 35.06890387 59.07617188 38.56103516 C59.06596622 45.41719225 59.04639452 52.27323338 59.02734375 59.12939453 C76.84734375 59.12939453 94.66734375 59.12939453 113.02734375 59.12939453 C113.01574219 54.95412109 113.00414062 50.77884766 112.9921875 46.47705078 C112.98576054 43.1564207 112.98033632 39.83579236 112.97559357 36.51515961 C112.97030392 33.0051296 112.96323055 29.49512358 112.9519043 25.98510742 C112.93900169 21.96158613 112.93411463 17.93809039 112.9296875 13.91455078 C112.92194557 12.01927391 112.92194557 12.01927391 112.91404724 10.08570862 C112.91397171 8.92458054 112.91389618 7.76345245 112.91381836 6.56713867 C112.91159775 5.53899551 112.90937714 4.51085236 112.90708923 3.45155334 C113.02734375 1.12939453 113.02734375 1.12939453 114.02734375 0.12939453 C134.81734375 0.12939453 155.60734375 0.12939453 177.02734375 0.12939453 C177.02734375 54.24939453 177.02734375 108.36939453 177.02734375 164.12939453 C155.90734375 164.12939453 134.78734375 164.12939453 113.02734375 164.12939453 C113.02734375 143.99939453 113.02734375 123.86939453 113.02734375 103.12939453 C95.20734375 103.12939453 77.38734375 103.12939453 59.02734375 103.12939453 C59.02734375 123.25939453 59.02734375 143.38939453 59.02734375 164.12939453 C37.24734375 164.12939453 15.46734375 164.12939453 -6.97265625 164.12939453 C-6.9952016 142.89410408 -7.01363444 121.65882327 -7.02446842 100.4235239 C-7.0296318 90.56432734 -7.0366753 80.70513873 -7.0480957 70.84594727 C-7.05804126 62.25591636 -7.06450937 53.66589122 -7.06674474 45.07585472 C-7.06805207 40.52458258 -7.0711393 35.9733269 -7.07838631 31.42206001 C-7.0851445 27.14334634 -7.08727362 22.864656 -7.08576393 18.5859375 C-7.08604035 17.01088777 -7.08804666 15.4358373 -7.09186172 13.86079216 C-7.09679585 11.71975201 -7.0956556 9.57880138 -7.09291077 7.4377594 C-7.09383256 6.23666314 -7.09475435 5.03556688 -7.09570408 3.79807377 C-6.86916831 -1.11506693 -4.34100869 0.00305172 0 0 Z " fill="#FFB92B" transform="translate(140.97265625,-0.12939453125)"/>
<path d="M0 0 C60.72 0 121.44 0 184 0 C184 15.84 184 31.68 184 48 C164.53 48 145.06 48 125 48 C125 77.37 125 106.74 125 137 C103.55 137 82.1 137 60 137 C60 107.63 60 78.26 60 48 C40.2 48 20.4 48 0 48 C0 32.16 0 16.32 0 0 Z " fill="#19AE62" transform="translate(134,181)"/>
<path d="M0 0 C20.79 0 41.58 0 63 0 C63 31.35 63 62.7 63 95 C99.63 95 136.26 95 174 95 C174 108.86 174 122.72 174 137 C116.58 137 59.16 137 0 137 C0 91.79 0 46.58 0 0 Z " fill="#1984D5" transform="translate(0,181)"/>
<path d="M0 0 C37.62 0 75.24 0 114 0 C114.91866251 2.75598752 115.101683 4.19627651 115.02172852 7.01245117 C115.00130493 7.824198 114.98088135 8.63594482 114.95983887 9.47229004 C114.9331311 10.32061401 114.90642334 11.16893799 114.87890625 12.04296875 C114.85824097 12.82627563 114.83757568 13.60958252 114.81628418 14.41662598 C114.73756842 17.34041484 114.64947179 20.26394507 114.5625 23.1875 C114.376875 29.725625 114.19125 36.26375 114 43 C97.17 43 80.34 43 63 43 C63 82.93 63 122.86 63 164 C42.21 164 21.42 164 0 164 C0 109.88 0 55.76 0 0 Z " fill="#AC2C2C" transform="translate(0,0)"/>
</svg>
