<?xml version="1.0" encoding="UTF-8"?>
<svg version="1.1" xmlns="http://www.w3.org/2000/svg" width="1027" height="361">
<path d="M0 0 C18.81 0 37.62 0 57 0 C58 1 58 1 58.12025452 2.98048401 C58.11803391 3.84874313 58.11581329 4.71700226 58.11352539 5.61157227 C58.11344986 6.59251358 58.11337433 7.5734549 58.11329651 8.5841217 C58.10813522 9.6507756 58.10297394 10.7174295 58.09765625 11.81640625 C58.0962413 12.9025975 58.09482635 13.98878876 58.09336853 15.1078949 C58.08775048 18.59279075 58.07519492 22.07762342 58.0625 25.5625 C58.05748733 27.91861887 58.05292402 30.27473874 58.04882812 32.63085938 C58.03862411 38.42061711 58.01905224 44.21023745 58 50 C73.18 50 88.36 50 104 50 C104 33.5 104 17 104 0 C122.48 0 140.96 0 160 0 C160 47.19 160 94.38 160 143 C141.52 143 123.04 143 104 143 C104 125.18 104 107.36 104 89 C88.82 89.33 73.64 89.66 58 90 C58.01160156 93.74214844 58.02320313 97.48429687 58.03515625 101.33984375 C58.04294547 104.94718338 58.049023 108.55452209 58.05493164 112.16186523 C58.05997363 114.67716895 58.06680703 117.19246972 58.07543945 119.70776367 C58.08751094 123.31429775 58.09322949 126.92079323 58.09765625 130.52734375 C58.10281754 131.65961899 58.10797882 132.79189423 58.11329651 133.95848083 C58.11337204 134.99948441 58.11344757 136.04048798 58.11352539 137.11303711 C58.115746 138.03459091 58.11796661 138.95614471 58.12025452 139.90562439 C58 142 58 142 57 143 C38.19 143 19.38 143 0 143 C0 95.81 0 48.62 0 0 Z " fill="#FFB92B" transform="translate(117,42)"/>
<path d="M0 0 C52.8 0 105.6 0 160 0 C160 14.19 160 28.38 160 43 C143.17 43 126.34 43 109 43 C109 68.41 109 93.82 109 120 C99.615625 120.020625 90.23125 120.04125 80.5625 120.0625 C77.59580322 120.071604 74.62910645 120.08070801 71.57250977 120.09008789 C69.23714239 120.0930068 66.90177451 120.09555542 64.56640625 120.09765625 C62.72798157 120.1053302 62.72798157 120.1053302 60.85241699 120.11315918 C59.69528198 120.11328003 58.53814697 120.11340088 57.34594727 120.11352539 C56.335569 120.115746 55.32519073 120.11796661 54.28419495 120.12025452 C52 120 52 120 51 119 C50.90505267 116.62699131 50.87440681 114.28321297 50.88647461 111.90991211 C50.88632858 111.16849472 50.88618256 110.42707733 50.8860321 109.66319275 C50.88673135 107.20121379 50.89452426 104.73930957 50.90234375 102.27734375 C50.90420789 100.57483461 50.90563181 98.87232493 50.90663147 97.16981506 C50.91045698 92.68006927 50.92028753 88.19035562 50.93133545 83.70062256 C50.94334332 78.31836359 50.94795165 72.9360939 50.95378876 67.55382538 C50.96349928 59.36919454 50.98265559 51.18463428 51 43 C34.17 43 17.34 43 0 43 C-6.41006154 30.17987693 -0.34948956 14.3290719 0 0 Z " fill="#19AE62" transform="translate(117,198)"/>
<path d="M0 0 C18.15 0 36.3 0 55 0 C55 27.72 55 55.44 55 84 C87.01 84 119.02 84 152 84 C152 95.88 152 107.76 152 120 C101.84 120 51.68 120 0 120 C0 80.4 0 40.8 0 0 Z " fill="#1984D5" transform="translate(0,198)"/>
<path d="M0 0 C33 0 66 0 100 0 C100 12.21 100 24.42 100 37 C85.15 37 70.3 37 55 37 C55 71.98 55 106.96 55 143 C36.85 143 18.7 143 0 143 C0 95.81 0 48.62 0 0 Z " fill="#AC2C2C" transform="translate(0,42)"/>
<path d="M0 0 C1.44960374 -0.04154194 2.89878784 -0.10280277 4.34667969 -0.18457031 C16.34721992 -0.85111429 16.34721992 -0.85111429 20.51708984 2.73266602 C22.32319449 5.29459393 23.71597529 7.79941124 25.06445312 10.62475586 C26.00986717 12.2158371 26.96639256 13.80043049 27.93945312 15.37475586 C28.41898438 16.18944336 28.89851562 17.00413086 29.39257812 17.84350586 C31.42796979 21.22948451 33.54989066 24.55393108 35.68945312 27.87475586 C36.06183105 28.45322266 36.43420898 29.03168945 36.81787109 29.62768555 C39.20010708 33.31596732 41.62616575 36.97338701 44.06445312 40.62475586 C44.10203735 38.86047241 44.10203735 38.86047241 44.14038086 37.06054688 C44.23428119 32.71260964 44.33454361 28.3648387 44.43676758 24.01708984 C44.48018246 22.13236368 44.52185256 20.2475965 44.56176758 18.36279297 C44.61931206 15.65962337 44.68305117 12.9566615 44.74804688 10.25366211 C44.76475937 9.405746 44.78147186 8.5578299 44.7986908 7.68421936 C44.95058142 1.73862757 44.95058142 1.73862757 46.06445312 0.62475586 C56.29445313 0.62475586 66.52445313 0.62475586 77.06445312 0.62475586 C77.06445312 31.64475586 77.06445312 62.66475586 77.06445312 94.62475586 C66.83445312 94.62475586 56.60445312 94.62475586 46.06445312 94.62475586 C39.072401 85.63497455 32.95585441 76.5491629 27.09179688 66.83569336 C25.59546402 64.46577889 24.07155068 62.19536757 22.43774414 59.92407227 C21.99197525 59.30335846 21.54620636 58.68264465 21.08692932 58.04312134 C20.74951218 57.57506073 20.41209503 57.10700012 20.06445312 56.62475586 C20.0268689 58.2981604 20.0268689 58.2981604 19.98852539 60.00537109 C19.89461891 64.12968176 19.79435799 68.25381736 19.69213867 72.37792969 C19.64872613 74.16564856 19.60705584 75.9534106 19.56713867 77.74121094 C19.50958852 80.30538976 19.44585109 82.86934998 19.38085938 85.43334961 C19.35579063 86.63960243 19.35579063 86.63960243 19.33021545 87.870224 C19.17832483 93.51088415 19.17832483 93.51088415 18.06445312 94.62475586 C15.68876793 94.71315256 13.34236639 94.74005891 10.96679688 94.72241211 C9.90350914 94.72028969 9.90350914 94.72028969 8.81874084 94.71812439 C6.546436 94.71251029 4.27422837 94.69995549 2.00195312 94.68725586 C0.46484517 94.68224267 -1.07226433 94.67767945 -2.609375 94.67358398 C-6.38480329 94.66253628 -10.16015858 94.64526227 -13.93554688 94.62475586 C-13.95866865 82.51633642 -13.97646112 70.40792219 -13.98735905 58.29948521 C-13.99258824 52.67767624 -13.99968653 47.05588233 -14.01098633 41.43408203 C-14.02181393 36.01357309 -14.02782344 30.59307866 -14.03042412 25.17255974 C-14.0322786 23.09960641 -14.03589964 21.02665392 -14.04127693 18.95370674 C-14.04848568 16.06091693 -14.04953789 13.1681879 -14.04907227 10.27539062 C-14.05266754 9.40936722 -14.05626282 8.54334381 -14.05996704 7.65107727 C-14.04289823 -2.08227396 -8.21839389 0.18400769 0 0 Z " fill="#FFFFFF" transform="translate(484.935546875,66.375244140625)"/>
<path d="M0 0 C10.23 0 20.46 0 31 0 C37.63888889 9.95833333 37.63888889 9.95833333 40.375 14.3125 C43.46577792 19.19770308 46.66413421 24.00190601 49.91015625 28.78515625 C52.72730986 33.11883368 55.36273783 37.55520693 58 42 C57.99476318 40.79875488 57.98952637 39.59750977 57.98413086 38.35986328 C57.96606347 33.91325624 57.9545616 29.46665247 57.94506836 25.02001953 C57.94003213 23.09358169 57.93320288 21.16714769 57.92456055 19.24072266 C57.91246392 16.47557632 57.90676467 13.71048042 57.90234375 10.9453125 C57.89718246 10.0806839 57.89202118 9.2160553 57.88670349 8.32522583 C57.88612829 2.22774341 57.88612829 2.22774341 59 0 C69.23 0 79.46 0 90 0 C90.02254946 12.23880658 90.04091418 24.47759947 90.05181217 36.71642208 C90.05704139 42.39876512 90.06413973 48.08109327 90.07543945 53.76342773 C90.08626696 59.24229136 90.09227654 64.72114062 90.09487724 70.20001411 C90.09673174 72.29529611 90.10035282 74.39057728 90.10573006 76.4858532 C90.11293868 79.40977584 90.11399102 82.33363833 90.11352539 85.25756836 C90.11712067 86.1329425 90.12071594 87.00831665 90.12442017 87.91021729 C90.11405216 93.88594784 90.11405216 93.88594784 89 95 C84.85722031 95.45948871 80.7117924 95.61358691 76.54663086 95.73461914 C75.15199937 95.7861167 73.75801464 95.86094887 72.3659668 95.96020508 C67.72637815 96.2849265 63.52321198 96.2972061 59 95 C55.36155658 91.4391876 53.32179536 87.48218249 51 83 C49.69152436 81.31374763 48.36133242 79.6438764 47 78 C46.05608995 76.37256888 45.11464138 74.74344971 44.203125 73.09765625 C40.81077545 67.18307278 37.11762123 61.43370322 33 56 C32.96241577 57.66554932 32.96241577 57.66554932 32.92407227 59.36474609 C32.83005085 63.47603319 32.72981743 67.58714923 32.62768555 71.69824219 C32.5843167 73.47912603 32.54264306 75.26005198 32.50268555 77.04101562 C32.4450301 79.59778548 32.3813223 82.15434298 32.31640625 84.7109375 C32.29133751 85.90944839 32.29133751 85.90944839 32.26576233 87.13217163 C32.11387171 92.77225659 32.11387171 92.77225659 31 95 C20.77 95 10.54 95 0 95 C0 63.65 0 32.3 0 0 Z " fill="#FFFFFF" transform="translate(833,205)"/>
<path d="M0 0 C4.39656173 -0.02465504 8.7930872 -0.04283842 13.18969727 -0.05493164 C14.68644918 -0.05997121 16.18319616 -0.06680287 17.67993164 -0.07543945 C19.82699807 -0.08752159 21.97399962 -0.09323191 24.12109375 -0.09765625 C26.06133423 -0.10551147 26.06133423 -0.10551147 28.04077148 -0.11352539 C31 0 31 0 32 1 C32.0883967 3.3756852 32.11530305 5.72208674 32.09765625 8.09765625 C32.0962413 8.80651474 32.09482635 9.51537323 32.09336853 10.24571228 C32.08775443 12.51801712 32.07519963 14.79022475 32.0625 17.0625 C32.05748681 18.59960796 32.05292359 20.13671745 32.04882812 21.67382812 C32.0386297 25.44928667 32.01905732 29.22453404 32 33 C39.59 33 47.18 33 55 33 C54.98839844 30.70160156 54.97679687 28.40320313 54.96484375 26.03515625 C54.95705291 23.81779112 54.95097631 21.60042749 54.94506836 19.38305664 C54.9400286 17.83780234 54.9331968 16.29255284 54.92456055 14.74731445 C54.91247924 12.53074971 54.90676827 10.31424782 54.90234375 8.09765625 C54.89718246 7.4028566 54.89202118 6.70805695 54.88670349 5.99220276 C54.88650723 4.3277067 54.93810871 2.66334501 55 1 C55.33 0.67 55.66 0.34 56 0 C66.23 0 76.46 0 87 0 C87 31.35 87 62.7 87 95 C76.77 95 66.54 95 56 95 C55 94 55 94 54.88647461 90.67358398 C54.88663371 89.19774444 54.89232686 87.72189931 54.90234375 86.24609375 C54.9037587 85.47064713 54.90517365 84.6952005 54.90663147 83.89625549 C54.91224655 81.40996506 54.92480154 78.9237634 54.9375 76.4375 C54.94251306 74.75586067 54.9470763 73.07421994 54.95117188 71.39257812 C54.96137168 67.26165671 54.98094395 63.13092818 55 59 C47.41 59 39.82 59 32 59 C32.01160156 61.43117188 32.02320313 63.86234375 32.03515625 66.3671875 C32.04295082 68.71695831 32.04902531 71.06672768 32.05493164 73.41650391 C32.05996621 75.05192711 32.06679427 76.6873458 32.07543945 78.32275391 C32.08754335 80.67090975 32.093237 83.01900619 32.09765625 85.3671875 C32.10281754 86.10057343 32.10797882 86.83395935 32.11329651 87.58956909 C32.11387171 92.77225659 32.11387171 92.77225659 31 95 C26.74585377 95.02465622 22.49174502 95.04283899 18.23754883 95.05493164 C16.78929927 95.05997101 15.34105483 95.06680253 13.89282227 95.07543945 C11.81525412 95.08752247 9.73775303 95.09323211 7.66015625 95.09765625 C6.40855713 95.10289307 5.15695801 95.10812988 3.86743164 95.11352539 C1 95 1 95 0 94 C-0.09525367 91.07805335 -0.12552736 88.17979671 -0.11352539 85.25756836 C-0.11367142 84.3405867 -0.11381744 83.42360504 -0.1139679 82.47883606 C-0.1132684 79.43248164 -0.10547428 76.38618755 -0.09765625 73.33984375 C-0.0957922 71.23377007 -0.09436824 69.12769597 -0.09336853 67.0216217 C-0.08954231 61.46657117 -0.07971114 55.91154659 -0.06866455 50.35650635 C-0.05845267 44.6927526 -0.05387139 39.02899467 -0.04882812 33.36523438 C-0.03808896 22.24347815 -0.0210113 11.12174123 0 0 Z " fill="#FFFFFF" transform="translate(940,205)"/>
<path d="M0 0 C0.66209473 -0.00095673 1.32418945 -0.00191345 2.00634766 -0.00289917 C3.40852961 -0.00358076 4.8107147 -0.00172792 6.21289062 0.00244141 C8.36595713 0.00779004 10.51881502 0.0024958 12.671875 -0.00390625 C14.03125046 -0.00324546 15.3906258 -0.00196429 16.75 0 C18.61785156 0.00169189 18.61785156 0.00169189 20.5234375 0.00341797 C23.375 0.1328125 23.375 0.1328125 24.375 1.1328125 C24.4633967 3.5084977 24.49030305 5.85489924 24.47265625 8.23046875 C24.4712413 8.93932724 24.46982635 9.64818573 24.46836853 10.37852478 C24.46275443 12.65082962 24.45019963 14.92303725 24.4375 17.1953125 C24.43248681 18.73242046 24.42792359 20.26952995 24.42382812 21.80664062 C24.4136297 25.58209917 24.39405732 29.35734654 24.375 33.1328125 C32.295 33.1328125 40.215 33.1328125 48.375 33.1328125 C48.36339844 30.83441406 48.35179687 28.53601563 48.33984375 26.16796875 C48.33205291 23.95060362 48.32597631 21.73323999 48.32006836 19.51586914 C48.3150286 17.97061484 48.3081968 16.42536534 48.29956055 14.88012695 C48.28747924 12.66356221 48.28176827 10.44706032 48.27734375 8.23046875 C48.27218246 7.5356691 48.26702118 6.84086945 48.26170349 6.12501526 C48.26150723 4.4605192 48.31310871 2.79615751 48.375 1.1328125 C50.25819268 -0.75038018 53.49430137 0.00226965 56 0 C56.66209473 -0.00095673 57.32418945 -0.00191345 58.00634766 -0.00289917 C59.40852961 -0.00358076 60.8107147 -0.00172792 62.21289062 0.00244141 C64.36595713 0.00779004 66.51881502 0.0024958 68.671875 -0.00390625 C70.03125046 -0.00324546 71.3906258 -0.00196429 72.75 0 C74.61785156 0.00169189 74.61785156 0.00169189 76.5234375 0.00341797 C79.375 0.1328125 79.375 0.1328125 80.375 1.1328125 C80.47555113 3.98835831 80.51115544 6.81975273 80.50439453 9.67578125 C80.50702301 11.01958359 80.50702301 11.01958359 80.50970459 12.39053345 C80.51412447 15.36714587 80.51118464 18.34369942 80.5078125 21.3203125 C80.5084855 23.37915051 80.50945549 25.43798844 80.51071167 27.49682617 C80.51218883 31.81787877 80.51003351 36.13891073 80.50537109 40.45996094 C80.4996738 46.01217796 80.50295271 51.56434664 80.50894356 57.11656189 C80.51254869 61.36975471 80.51141081 65.62293599 80.50881577 69.87612915 C80.50814636 71.92396043 80.50897538 73.97179273 80.51129532 76.0196228 C80.51382106 78.87639158 80.50998236 81.73308093 80.50439453 84.58984375 C80.50641876 85.44494537 80.50844299 86.300047 80.51052856 87.18106079 C80.48926239 93.01855011 80.48926239 93.01855011 79.375 94.1328125 C77.08348583 94.22072225 74.78927476 94.23975288 72.49609375 94.23046875 C71.23982178 94.22797119 69.9835498 94.22547363 68.68920898 94.22290039 C67.07989502 94.21379639 65.47058105 94.20469238 63.8125 94.1953125 C58.718125 94.1746875 53.62375 94.1540625 48.375 94.1328125 C48.375 82.5828125 48.375 71.0328125 48.375 59.1328125 C40.455 59.1328125 32.535 59.1328125 24.375 59.1328125 C24.375 70.6828125 24.375 82.2328125 24.375 94.1328125 C13.815 94.1328125 3.255 94.1328125 -7.625 94.1328125 C-7.64754957 82.02438974 -7.66591424 69.91598081 -7.67681217 57.80754185 C-7.68204136 52.18573288 -7.68913966 46.56393897 -7.70043945 40.94213867 C-7.71126706 35.52162973 -7.71727656 30.1011353 -7.71987724 24.68061638 C-7.72173172 22.60766305 -7.72535277 20.53471056 -7.73073006 18.46176338 C-7.7379388 15.56897357 -7.73899101 12.67624454 -7.73852539 9.78344727 C-7.74212067 8.91742386 -7.74571594 8.05140045 -7.74942017 7.15913391 C-7.73651261 -0.201296 -7.22009655 0.00653994 0 0 Z " fill="#FFFFFF" transform="translate(614.625,66.8671875)"/>
<path d="M0 0 C8.37375 -0.061875 16.7475 -0.12375 25.375 -0.1875 C27.99872559 -0.21481201 30.62245117 -0.24212402 33.32568359 -0.27026367 C35.43326356 -0.27903538 37.54084866 -0.28667769 39.6484375 -0.29296875 C40.72005127 -0.30831665 41.79166504 -0.32366455 42.89575195 -0.33947754 C53.62078159 -0.34316481 62.71822248 1.95572947 71 9 C78.44738723 17.00025004 80.72668484 24.27121354 80.46875 35.13671875 C79.45018509 43.53139125 75.92141656 49.87674273 69.3125 55.125 C67.89335629 56.11031221 66.45767451 57.07264136 65 58 C63.515 58.99 63.515 58.99 62 60 C62.70125 61.093125 63.4025 62.18625 64.125 63.3125 C66.72382133 67.46623409 69.06311121 71.7300933 71.37109375 76.05078125 C73.68972958 80.24879097 76.229578 84.30873265 78.77734375 88.37109375 C80.15613577 91.33571685 79.93651044 92.01752562 79 95 C74.41055653 95.24822252 69.82505014 95.42906459 65.23046875 95.54931641 C63.67020619 95.59944922 62.11040997 95.66758435 60.55175781 95.75439453 C47.64042784 96.45520108 47.64042784 96.45520108 43.74267578 92.99755859 C42.15672372 90.38683751 41.05306142 87.86351501 40 85 C39.31115458 83.64492982 38.60708956 82.29740521 37.8828125 80.9609375 C37.30273438 79.77757812 36.72265625 78.59421875 36.125 77.375 C35.81820312 76.75238281 35.51140625 76.12976563 35.1953125 75.48828125 C34.4597017 73.99407182 33.7292454 72.49732635 33 71 C32.96241577 71.98395752 32.96241577 71.98395752 32.92407227 72.98779297 C32.8082674 75.95040183 32.68547114 78.91268031 32.5625 81.875 C32.52318359 82.90753906 32.48386719 83.94007813 32.44335938 85.00390625 C32.38051758 86.48310547 32.38051758 86.48310547 32.31640625 87.9921875 C32.27974854 88.90339355 32.24309082 89.81459961 32.20532227 90.75341797 C32 93 32 93 31 95 C20.77 95 10.54 95 0 95 C0 63.65 0 32.3 0 0 Z M32 28 C32 31.96 32 35.92 32 40 C33.7325 40.04125 35.465 40.0825 37.25 40.125 C38.22453125 40.14820313 39.1990625 40.17140625 40.203125 40.1953125 C43.0196498 39.99862781 44.60949036 39.44568916 47 38 C47.04125 36.72125 47.0825 35.4425 47.125 34.125 C47.15980469 33.04605469 47.15980469 33.04605469 47.1953125 31.9453125 C47.18331689 29.76136355 47.18331689 29.76136355 45 28 C41.87185486 27.75639927 41.87185486 27.75639927 38.375 27.875 C36.59222656 27.90207031 36.59222656 27.90207031 34.7734375 27.9296875 C33.40058594 27.96449219 33.40058594 27.96449219 32 28 Z " fill="#FFFFFF" transform="translate(692,205)"/>
<path d="M0 0 C0.60328125 0.45246094 1.2065625 0.90492187 1.828125 1.37109375 C8.82595102 6.98456723 12.94257347 13.27144321 16.3125 21.5625 C16.56717041 22.18761475 16.82184082 22.81272949 17.08422852 23.45678711 C22.12735076 36.54484918 20.04459478 48.88531438 14.9375 61.5625 C9.47100412 72.87080343 -0.09755812 81.07617491 -11.47265625 86.08984375 C-23.71734779 90.19664138 -39.42716581 89.68983046 -51 84 C-54.19111014 82.21096818 -57.10039154 80.22658522 -60 78 C-60.61488281 77.56042969 -61.22976563 77.12085938 -61.86328125 76.66796875 C-71.74549296 69.06458191 -75.88525142 57.94210964 -78 46 C-79.53550467 33.94773696 -76.45205506 20.66430282 -69.8125 10.4375 C-62.29075002 0.88503998 -51.38302725 -6.18695839 -39.40625 -8.71484375 C-25.27841641 -10.38908377 -11.64814331 -8.8391884 0 0 Z M-41.875 25.75 C-45.83503976 31.80653139 -46.49648183 37.14030206 -45.66796875 44.20703125 C-44.5423954 48.91337598 -42.32996916 52.5144248 -39 56 C-34.73570221 58.26824351 -30.78032253 58.41932654 -26 58 C-21.4768717 56.59627053 -17.85438003 54.85692499 -14.94140625 50.9921875 C-11.96083096 44.68474602 -12.41024396 36.5112423 -14.21484375 29.90234375 C-16.11087068 25.30848746 -19.27569081 23.36850818 -23.5625 21.1875 C-30.68134312 18.72826328 -36.58751042 20.69240127 -41.875 25.75 Z " fill="#FFFFFF" transform="translate(786,74)"/>
<path d="M0 0 C11.55 0 23.1 0 35 0 C41.45695364 13.99006623 41.45695364 13.99006623 43.2890625 20.671875 C44.01903471 23.06233345 44.94667999 25.234966 46 27.5 C47.77441636 31.33675689 49.00102414 35.16452777 50.1640625 39.22265625 C51.87136649 44.89505409 53.95675005 50.44161921 56 56 C56.2362207 56.64275879 56.47244141 57.28551758 56.71582031 57.94775391 C58.95904172 64.03027727 61.20526292 70.10859198 63.6796875 76.1015625 C63.95304932 76.76679932 64.22641113 77.43203613 64.50805664 78.11743164 C65.26484457 79.94727365 66.03245487 81.77262903 66.80078125 83.59765625 C68.0365474 87.10368984 68.68130481 90.30036453 69 94 C68 95 68 95 64.94897461 95.11352539 C63.60008729 95.11336634 62.25119386 95.10767612 60.90234375 95.09765625 C59.83905602 95.09553383 59.83905602 95.09553383 58.75428772 95.09336853 C56.48198288 95.08775443 54.20977525 95.07519963 51.9375 95.0625 C50.40039204 95.05748681 48.86328255 95.05292359 47.32617188 95.04882812 C43.55074358 95.03778042 39.77538829 95.02050641 36 95 C35.516941 93.60550891 35.03874483 92.20933293 34.5625 90.8125 C34.29566406 90.03519531 34.02882813 89.25789063 33.75390625 88.45703125 C33.00486577 86.01585787 32.50078358 83.50391792 32 81 C22.43 81 12.86 81 3 81 C2.34 84.63 1.68 88.26 1 92 C0.34 92.99 -0.32 93.98 -1 95 C-4.05688477 95.35644531 -4.05688477 95.35644531 -7.94140625 95.328125 C-8.62428207 95.32625183 -9.3071579 95.32437866 -10.01072693 95.32244873 C-11.45405968 95.31572543 -12.89737413 95.30180523 -14.34057617 95.28125 C-16.55729985 95.25007314 -18.77331313 95.24027826 -20.99023438 95.234375 C-31.83664069 95.16335931 -31.83664069 95.16335931 -33 94 C-33.45009907 89.01201689 -32.27839177 85.74719788 -30.1875 81.25 C-27.96755963 76.34521028 -26.14564132 71.50482127 -24.6953125 66.3203125 C-24.00463448 64.01546563 -23.17129532 61.84694754 -22.25 59.625 C-20.17155367 54.58754419 -18.40015718 49.46228488 -16.625 44.3125 C-14.04604328 36.84531106 -11.25862205 29.50822491 -8.2734375 22.1953125 C-7.21621242 19.54252073 -6.25480605 16.9026004 -5.375 14.1875 C-3.79730878 9.38271309 -1.87819013 4.69547534 0 0 Z M17 37 C16.16338138 39.7907207 15.33057263 42.58248012 14.5 45.375 C14.26152344 46.1690625 14.02304687 46.963125 13.77734375 47.78125 C13.43896484 48.92207031 13.43896484 48.92207031 13.09375 50.0859375 C12.88427734 50.7876709 12.67480469 51.4894043 12.45898438 52.21240234 C11.91710213 54.01526378 11.91710213 54.01526378 12 56 C15.96 56 19.92 56 24 56 C23.34 54.35 22.68 52.7 22 51 C21.63795463 49.69512816 21.30232825 48.38248674 21 47.0625 C20.18102852 43.63711929 19.16429729 40.32656369 18 37 C17.67 37 17.34 37 17 37 Z " fill="#FFFFFF" transform="translate(436,205)"/>
<path d="M0 0 C10.4231072 8.90018642 14.79798062 16.89106804 16.05859375 30.7578125 C5.16859375 30.7578125 -5.72140625 30.7578125 -16.94140625 30.7578125 C-17.60140625 28.7778125 -18.26140625 26.7978125 -18.94140625 24.7578125 C-22.78245201 22.19972296 -27.16196208 21.7578125 -31.69140625 21.7578125 C-36.28182572 23.17024926 -38.61841916 25.31905317 -40.9140625 29.55078125 C-43.69210629 36.02426933 -43.94489233 42.39652679 -41.69140625 49.0703125 C-40.25471281 52.37866161 -39.02659098 54.72808571 -35.94140625 56.7578125 C-31.32199599 58.04945343 -27.75274239 57.98392257 -23.12890625 56.6953125 C-19.74375659 54.99123202 -19.74375659 54.99123202 -18.18823242 51.67553711 C-15.94140625 48.7578125 -15.94140625 48.7578125 -12.6574707 48.06079102 C-10.75034302 48.09837524 -10.75034302 48.09837524 -8.8046875 48.13671875 C-8.12464157 48.14283676 -7.44459564 48.14895477 -6.74394226 48.15525818 C-4.57907128 48.18213814 -2.41779945 48.25126999 -0.25390625 48.3203125 C1.21285413 48.34184204 2.67965547 48.3607514 4.14648438 48.37695312 C14.84632733 48.54554608 14.84632733 48.54554608 16.05859375 49.7578125 C16.26601041 57.22481229 14.09719078 62.61827415 10.05859375 68.7578125 C9.4553125 69.74007812 8.85203125 70.72234375 8.23046875 71.734375 C2.63803282 79.51952861 -5.99010377 84.76810981 -15.19140625 87.16796875 C-30.30482291 89.54518325 -45.15018241 88.76718081 -58.00390625 79.8203125 C-67.3867268 72.72323169 -73.22663946 62.70001814 -75.46875 51.234375 C-77.49371825 36.33998046 -75.84549159 20.69702871 -66.9765625 8.15625 C-50.96531149 -10.71305541 -20.17221656 -14.73127007 0 0 Z " fill="#FFFFFF" transform="translate(891.94140625,74.2421875)"/>
<path d="M0 0 C0.9486644 -0.00960754 1.8973288 -0.01921509 2.8747406 -0.02911377 C3.91002396 -0.03336365 4.94530731 -0.03761353 6.01196289 -0.04199219 C7.07443741 -0.04769226 8.13691193 -0.05339233 9.23158264 -0.05926514 C11.4904785 -0.06873757 13.74938833 -0.07525797 16.00830078 -0.07910156 C19.43881101 -0.0887385 22.8687046 -0.11971215 26.29907227 -0.15136719 C28.49503225 -0.15790395 30.69099653 -0.16315177 32.88696289 -0.16699219 C33.90402817 -0.17933899 34.92109344 -0.19168579 35.96897888 -0.20440674 C47.57570668 -0.16875502 57.29337029 2.89544933 65.59399414 11.21191406 C72.12511124 19.24087 72.73338323 28.5177135 72.45336914 38.50488281 C71.45470907 47.31124887 67.27251394 54.46176421 60.35961914 60.03613281 C49.61657295 66.68546317 38.72869131 66.6483957 26.54711914 66.16113281 C26.55235596 66.96856934 26.55759277 67.77600586 26.56298828 68.60791016 C26.58371843 72.25064319 26.59676663 75.89336383 26.60961914 79.53613281 C26.61799805 80.80714844 26.62637695 82.07816406 26.63500977 83.38769531 C26.63823242 84.59941406 26.64145508 85.81113281 26.64477539 87.05957031 C26.65001221 88.18024902 26.65524902 89.30092773 26.66064453 90.45556641 C26.54711914 93.16113281 26.54711914 93.16113281 25.54711914 95.16113281 C21.29297291 95.18578903 17.03886416 95.2039718 12.78466797 95.21606445 C11.33641842 95.22110382 9.88817397 95.22793534 8.43994141 95.23657227 C6.36237326 95.24865528 4.28487217 95.25436493 2.20727539 95.25878906 C0.95567627 95.26402588 -0.29592285 95.2692627 -1.58544922 95.2746582 C-4.45288086 95.16113281 -4.45288086 95.16113281 -5.45288086 94.16113281 C-5.55344777 91.27507266 -5.58903461 88.41290707 -5.58227539 85.52636719 C-5.58402771 84.62074539 -5.58578003 83.7151236 -5.58758545 82.78205872 C-5.5920054 79.77298088 -5.58906547 76.7639613 -5.58569336 73.75488281 C-5.58636636 71.67362456 -5.58733635 69.59236638 -5.58859253 67.5111084 C-5.5900697 63.14297744 -5.58791434 58.77486688 -5.58325195 54.40673828 C-5.57755466 48.79398728 -5.58083356 43.18128409 -5.58682442 37.56853485 C-5.59042952 33.26901893 -5.58929168 28.96951443 -5.58669662 24.66999817 C-5.58602722 22.5998382 -5.58685626 20.52967721 -5.58917618 18.45951843 C-5.59170188 15.57161695 -5.58786328 12.68379404 -5.58227539 9.79589844 C-5.58429962 8.93144608 -5.58632385 8.06699371 -5.58840942 7.17634583 C-5.56271021 0.04531957 -5.56271021 0.04531957 0 0 Z M26.54711914 26.16113281 C26.54711914 30.78113281 26.54711914 35.40113281 26.54711914 40.16113281 C32.46377718 40.51674828 32.46377718 40.51674828 38.10961914 39.16113281 C40.06543782 36.43999378 40.11832439 34.33494064 39.91821289 31.03613281 C39.65334413 29.01711966 39.65334413 29.01711966 38.10961914 27.16113281 C34.1974792 25.63444405 30.73007515 25.97659064 26.54711914 26.16113281 Z " fill="#FFFFFF" transform="translate(520.452880859375,204.8388671875)"/>
<path d="M0 0 C1.08628693 0.00303635 1.08628693 0.00303635 2.19451904 0.00613403 C3.3334964 0.00350555 3.3334964 0.00350555 4.4954834 0.00082397 C7.0175807 -0.00359473 9.53960847 -0.00065649 12.06170654 0.00271606 C13.80666111 0.00204303 15.55161558 0.00107301 17.29656982 -0.00018311 C20.95852549 -0.0016601 24.62045682 0.00049454 28.28240967 0.00515747 C32.98715147 0.01085476 37.69183622 0.00757577 42.39657593 0.00158501 C46.00124546 -0.00202055 49.60590136 -0.00088204 53.21057129 0.0017128 C54.94580085 0.00238208 56.68103163 0.0015536 58.41625977 -0.00076675 C60.83717142 -0.0032932 63.25798941 0.00054718 65.67889404 0.00613403 C66.40308533 0.0041098 67.12727661 0.00208557 67.87341309 0 C72.82244388 0.0212659 72.82244388 0.0212659 73.93670654 1.13552856 C74.03617107 2.90412049 74.06750872 4.67664307 74.06951904 6.44802856 C74.07080811 7.52310669 74.07209717 8.59818481 74.07342529 9.70584106 C74.06955811 10.83763794 74.06569092 11.96943481 74.06170654 13.13552856 C74.06557373 14.26732544 74.06944092 15.39912231 74.07342529 16.56521606 C74.07213623 17.64029419 74.07084717 18.71537231 74.06951904 19.82302856 C74.06839111 20.81689575 74.06726318 21.81076294 74.06610107 22.83474731 C73.93670654 25.13552856 73.93670654 25.13552856 72.93670654 26.13552856 C71.22898297 26.22266688 69.51772005 26.24252864 67.80780029 26.23318481 C66.25609131 26.22835083 66.25609131 26.22835083 64.67303467 26.22341919 C63.58442139 26.21504028 62.49580811 26.20666138 61.37420654 26.19802856 C59.73548584 26.19126099 59.73548584 26.19126099 58.06365967 26.18435669 C55.35462159 26.17252683 52.64569055 26.156044 49.93670654 26.13552856 C49.93892715 26.98521713 49.94114777 27.8349057 49.94343567 28.71034241 C49.96343668 36.70089582 49.9786797 44.69144087 49.98851871 52.68201351 C49.99374701 56.79047141 50.00084367 60.8989087 50.012146 65.00735474 C50.0229768 68.96899685 50.02898378 72.93061909 50.03158379 76.89227486 C50.03343769 78.40701167 50.03705764 79.92174735 50.0424366 81.43647575 C50.04964961 83.55094669 50.05069738 85.6653345 50.05023193 87.77981567 C50.05245255 88.98560776 50.05467316 90.19139984 50.05696106 91.43373108 C49.93670654 94.13552856 49.93670654 94.13552856 48.93670654 95.13552856 C46.7181539 95.22336398 44.49682158 95.24247465 42.27655029 95.23318481 C41.27985069 95.23106239 41.27985069 95.23106239 40.26301575 95.22889709 C38.13336755 95.22328375 36.00382315 95.2107291 33.87420654 95.19802856 C32.43345285 95.19301528 30.99269751 95.18845207 29.55194092 95.18435669 C26.01349552 95.17331001 22.47511115 95.15603648 18.93670654 95.13552856 C17.53062898 92.32337345 17.81720168 89.99508636 17.82318115 86.84988403 C17.82303513 86.20585632 17.8228891 85.56182861 17.82273865 84.89828491 C17.82343614 82.76639454 17.83122088 80.6345912 17.83905029 78.50271606 C17.84091505 77.0258387 17.84233868 75.54896072 17.84333801 74.07208252 C17.84715862 70.18240658 17.85698503 66.2927679 17.86804199 62.40310669 C17.87826591 58.43501286 17.88283774 54.46691302 17.88787842 50.49880981 C17.89860769 42.7110324 17.91567865 34.9232857 17.93670654 27.13552856 C16.89945435 27.09794434 16.89945435 27.09794434 15.84124756 27.05960083 C12.72702788 26.94400695 9.61313865 26.82111615 6.49920654 26.69802856 C5.41059326 26.65871216 4.32197998 26.61939575 3.20037842 26.57888794 C2.16590576 26.53699341 1.13143311 26.49509888 0.06561279 26.45193481 C-0.89272461 26.4152771 -1.85106201 26.37861938 -2.83843994 26.34085083 C-5.06329346 26.13552856 -5.06329346 26.13552856 -6.06329346 25.13552856 C-6.16275799 23.36693664 -6.19409563 21.59441406 -6.19610596 19.82302856 C-6.19739502 18.74795044 -6.19868408 17.67287231 -6.20001221 16.56521606 C-6.19421143 14.86752075 -6.19421143 14.86752075 -6.18829346 13.13552856 C-6.19216064 12.00373169 -6.19602783 10.87193481 -6.20001221 9.70584106 C-6.19872314 8.63076294 -6.19743408 7.55568481 -6.19610596 6.44802856 C-6.19497803 5.45416138 -6.1938501 4.46029419 -6.19268799 3.43630981 C-5.95159947 -0.85051692 -3.76171223 0.01616401 0 0 Z " fill="#FFFFFF" transform="translate(606.0632934570313,204.86447143554688)"/>
<path d="M0 0 C0.73511307 0.00359528 1.47022614 0.00719055 2.22761536 0.01089478 C2.99829346 0.01074875 3.76897156 0.01060272 4.56300354 0.01045227 C7.12237823 0.01115157 9.68168104 0.01894471 12.24104309 0.02676392 C14.01081299 0.02862804 15.7805834 0.03005197 17.550354 0.03105164 C22.2176505 0.03487728 26.88491607 0.04470796 31.55220032 0.05575562 C36.31110719 0.06596873 41.07001905 0.07054904 45.82893372 0.07559204 C55.17334837 0.08633019 64.51774004 0.10340717 73.86213684 0.12442017 C73.89100435 4.27023903 73.90889012 8.41603233 73.92463684 12.56192017 C73.93301575 13.74592407 73.94139465 14.92992798 73.95002747 16.14981079 C73.95325012 17.27451782 73.95647278 18.39922485 73.95979309 19.55801392 C73.96502991 20.60014038 73.97026672 21.64226685 73.97566223 22.7159729 C73.86213684 25.12442017 73.86213684 25.12442017 72.86213684 26.12442017 C65.27213684 26.12442017 57.68213684 26.12442017 49.86213684 26.12442017 C49.86213684 48.56442017 49.86213684 71.00442017 49.86213684 94.12442017 C39.30213684 94.12442017 28.74213684 94.12442017 17.86213684 94.12442017 C17.86213684 71.68442017 17.86213684 49.24442017 17.86213684 26.12442017 C10.27213684 26.12442017 2.68213684 26.12442017 -5.13786316 26.12442017 C-6.85354108 24.40874224 -6.26802141 22.15069282 -6.27067566 19.81192017 C-6.27196472 18.73684204 -6.27325378 17.66176392 -6.27458191 16.55410767 C-6.26878113 14.85641235 -6.26878113 14.85641235 -6.26286316 13.12442017 C-6.26673035 11.99262329 -6.27059753 10.86082642 -6.27458191 9.69473267 C-6.27329285 8.61965454 -6.27200378 7.54457642 -6.27067566 6.43692017 C-6.26954773 5.44305298 -6.2684198 4.44918579 -6.26725769 3.42520142 C-6.02448677 -0.89154034 -3.77805655 0.00779705 0 0 Z " fill="#FFFFFF" transform="translate(338.1378631591797,66.87557983398438)"/>
<path d="M0 0 C0.68429077 -0.00095673 1.36858154 -0.00191345 2.0736084 -0.00289917 C3.52286877 -0.0035808 4.97213218 -0.00172773 6.42138672 0.00244141 C8.64687928 0.00778998 10.87217001 0.0024959 13.09765625 -0.00390625 C14.50260461 -0.00324547 15.90755285 -0.0019643 17.3125 0 C18.59962891 0.00112793 19.88675781 0.00225586 21.21289062 0.00341797 C24.15625 0.1328125 24.15625 0.1328125 25.15625 1.1328125 C25.25050595 3.28024799 25.27367648 5.43082276 25.26977539 7.58032227 C25.26992142 8.25346466 25.27006744 8.92660706 25.2702179 9.62014771 C25.26951878 11.85487034 25.26172652 14.0895106 25.25390625 16.32421875 C25.25204206 17.86978612 25.25061816 19.41535407 25.24961853 20.96092224 C25.2457934 25.03638327 25.23596317 29.11180887 25.22491455 33.18725586 C25.21470032 37.34293132 25.21012089 41.49861249 25.20507812 45.65429688 C25.19434089 53.81381837 25.17726454 61.97331103 25.15625 70.1328125 C25.93863037 70.12757568 26.72101074 70.12233887 27.52709961 70.11694336 C31.04930833 70.09624144 34.5715043 70.08317412 38.09375 70.0703125 C39.32544922 70.06193359 40.55714844 70.05355469 41.82617188 70.04492188 C42.99599609 70.04169922 44.16582031 70.03847656 45.37109375 70.03515625 C46.99712524 70.02730103 46.99712524 70.02730103 48.65600586 70.01928711 C51.15625 70.1328125 51.15625 70.1328125 52.15625 71.1328125 C52.25557153 72.82839976 52.28705007 74.52806997 52.2890625 76.2265625 C52.29099609 77.77150391 52.29099609 77.77150391 52.29296875 79.34765625 C52.28910156 80.43175781 52.28523438 81.51585937 52.28125 82.6328125 C52.28705078 84.25896484 52.28705078 84.25896484 52.29296875 85.91796875 C52.29167969 86.94792969 52.29039062 87.97789062 52.2890625 89.0390625 C52.28793457 89.99103516 52.28680664 90.94300781 52.28564453 91.92382812 C52.15625 94.1328125 52.15625 94.1328125 51.15625 95.1328125 C49.35115627 95.23180811 47.54218072 95.26080401 45.734375 95.26220703 C44.57647461 95.26535919 43.41857422 95.26851135 42.22558594 95.27175903 C40.33501465 95.26872269 40.33501465 95.26872269 38.40625 95.265625 C37.12266602 95.26658173 35.83908203 95.26753845 34.51660156 95.26852417 C31.79621176 95.27000081 29.07585475 95.26784769 26.35546875 95.26318359 C22.86140331 95.25748631 19.36741467 95.26076549 15.87335205 95.26675606 C12.55097847 95.27123004 9.22862577 95.26810135 5.90625 95.265625 C4.64586914 95.26764923 3.38548828 95.26967346 2.08691406 95.27175903 C0.92901367 95.26860687 -0.22888672 95.26545471 -1.421875 95.26220703 C-2.44700195 95.26141144 -3.47212891 95.26061584 -4.52832031 95.25979614 C-6.84375 95.1328125 -6.84375 95.1328125 -7.84375 94.1328125 C-7.94431691 91.24675234 -7.97990375 88.38458675 -7.97314453 85.49804688 C-7.97489685 84.59242508 -7.97664917 83.68680328 -7.97845459 82.7537384 C-7.98287454 79.74466057 -7.97993461 76.73564098 -7.9765625 73.7265625 C-7.9772355 71.64530425 -7.97820549 69.56404607 -7.97946167 67.48278809 C-7.98093884 63.11465712 -7.97878348 58.74654657 -7.97412109 54.37841797 C-7.9684238 48.76566697 -7.9717027 43.15296378 -7.97769356 37.54021454 C-7.98129866 33.24069861 -7.98016082 28.94119412 -7.97756577 24.64167786 C-7.97689636 22.57151789 -7.9777254 20.5013569 -7.98004532 18.43119812 C-7.98257102 15.54329664 -7.97873242 12.65547372 -7.97314453 9.76757812 C-7.97516876 8.90312576 -7.97719299 8.0386734 -7.97927856 7.14802551 C-7.95234932 -0.32430951 -7.31968572 0.00641435 0 0 Z " fill="#FFFFFF" transform="translate(344.84375,204.8671875)"/>
<path d="M0 0 C0.68429077 -0.00095673 1.36858154 -0.00191345 2.0736084 -0.00289917 C3.52286877 -0.0035808 4.97213218 -0.00172773 6.42138672 0.00244141 C8.64687928 0.00778998 10.87217001 0.0024959 13.09765625 -0.00390625 C14.50260461 -0.00324547 15.90755285 -0.0019643 17.3125 0 C18.59962891 0.00112793 19.88675781 0.00225586 21.21289062 0.00341797 C24.15625 0.1328125 24.15625 0.1328125 25.15625 1.1328125 C25.25680113 3.98835831 25.29240544 6.81975273 25.28564453 9.67578125 C25.28739685 10.57164948 25.28914917 11.4675177 25.29095459 12.39053345 C25.29537447 15.36714587 25.29243464 18.34369942 25.2890625 21.3203125 C25.2897355 23.37915051 25.29070549 25.43798844 25.29196167 27.49682617 C25.29343883 31.81787877 25.29128351 36.13891073 25.28662109 40.45996094 C25.2809238 46.01217796 25.28420271 51.56434664 25.29019356 57.11656189 C25.29379869 61.36975471 25.29266081 65.62293599 25.29006577 69.87612915 C25.28939636 71.92396043 25.29022538 73.97179273 25.29254532 76.0196228 C25.29507106 78.87639158 25.29123236 81.73308093 25.28564453 84.58984375 C25.28766876 85.44494537 25.28969299 86.300047 25.29177856 87.18106079 C25.27051239 93.01855011 25.27051239 93.01855011 24.15625 94.1328125 C21.87677208 94.2330218 19.59417865 94.26362553 17.3125 94.265625 C16.62820923 94.26658173 15.94391846 94.26753845 15.2388916 94.26852417 C13.78963123 94.2692058 12.34036782 94.26735273 10.89111328 94.26318359 C8.66562072 94.25783502 6.44032999 94.2631291 4.21484375 94.26953125 C2.80989539 94.26887047 1.40494715 94.2675893 0 94.265625 C-1.28712891 94.26449707 -2.57425781 94.26336914 -3.90039062 94.26220703 C-6.84375 94.1328125 -6.84375 94.1328125 -7.84375 93.1328125 C-7.94430113 90.27726669 -7.97990544 87.44587227 -7.97314453 84.58984375 C-7.97489685 83.69397552 -7.97664917 82.7981073 -7.97845459 81.87509155 C-7.98287447 78.89847913 -7.97993464 75.92192558 -7.9765625 72.9453125 C-7.9772355 70.88647449 -7.97820549 68.82763656 -7.97946167 66.76879883 C-7.98093883 62.44774623 -7.97878351 58.12671427 -7.97412109 53.80566406 C-7.9684238 48.25344704 -7.97170271 42.70127836 -7.97769356 37.14906311 C-7.98129869 32.89587029 -7.98016081 28.64268901 -7.97756577 24.38949585 C-7.97689636 22.34166457 -7.97772538 20.29383227 -7.98004532 18.2460022 C-7.98257106 15.38923342 -7.97873236 12.53254407 -7.97314453 9.67578125 C-7.97516876 8.82067963 -7.97719299 7.965578 -7.97927856 7.08456421 C-7.95219511 -0.34974675 -7.27733505 0.00637723 0 0 Z " fill="#FFFFFF" transform="translate(430.84375,66.8671875)"/>
<path d="M0 0 C1.25159912 0.00523682 2.50319824 0.01047363 3.79272461 0.01586914 C4.78942421 0.01799156 4.78942421 0.01799156 5.80625916 0.02015686 C7.93590735 0.02577021 10.06545175 0.03832485 12.19506836 0.05102539 C13.63582205 0.05603868 15.07657739 0.06060188 16.51733398 0.06469727 C20.05577938 0.07574394 23.59416375 0.09301747 27.13256836 0.11352539 C28.77630484 3.40099836 28.27066336 7.04938549 28.26196289 10.66235352 C28.26371521 11.5470079 28.26546753 12.43166229 28.26727295 13.34312439 C28.2716861 16.27702782 28.26875535 19.21087131 28.26538086 22.14477539 C28.26605405 24.17736828 28.26702421 26.2099611 28.26828003 28.24255371 C28.26975627 32.50635544 28.26760478 36.77013625 28.26293945 41.03393555 C28.25724221 46.5086763 28.26052161 51.98336804 28.26651192 57.45810699 C28.2701195 61.65643689 28.26897803 65.85475509 28.26638412 70.05308533 C28.2657154 72.07217922 28.26654138 74.09127416 28.26886368 76.11036682 C28.27139341 78.92850571 28.26754504 81.74656438 28.26196289 84.56469727 C28.26398712 85.40528183 28.26601135 86.24586639 28.26809692 87.11192322 C28.24683232 92.88499747 28.24683232 92.88499747 27.13256836 95.11352539 C22.87842213 95.13818161 18.62431338 95.15636438 14.37011719 95.16845703 C12.92186763 95.1734964 11.47362319 95.18032792 10.02539062 95.18896484 C7.94782248 95.20104786 5.87032139 95.2067575 3.79272461 95.21118164 C2.54112549 95.21641846 1.28952637 95.22165527 0 95.22705078 C-2.86743164 95.11352539 -2.86743164 95.11352539 -3.86743164 94.11352539 C-3.96799855 91.22746523 -4.00358539 88.36529964 -3.99682617 85.47875977 C-3.99857849 84.57313797 -4.00033081 83.66751617 -4.00213623 82.73445129 C-4.00655618 79.72537346 -4.00361626 76.71635387 -4.00024414 73.70727539 C-4.00091714 71.62601714 -4.00188713 69.54475896 -4.00314331 67.46350098 C-4.00462048 63.09537001 -4.00246512 58.72725946 -3.99780273 54.35913086 C-3.99210544 48.74637986 -3.99538434 43.13367667 -4.0013752 37.52092743 C-4.0049803 33.2214115 -4.00384246 28.92190701 -4.00124741 24.62239075 C-4.000578 22.55223078 -4.00140704 20.48206979 -4.00372696 18.41191101 C-4.00625266 15.52400953 -4.00241406 12.63618661 -3.99682617 9.74829102 C-3.9988504 8.88383865 -4.00087463 8.01938629 -4.00296021 7.1287384 C-3.9778368 0.15748779 -3.9778368 0.15748779 0 0 Z " fill="#FFFFFF" transform="translate(787.867431640625,204.886474609375)"/>
<path d="M0 0 C2.67090821 1.398839 4.85464946 3.1276553 7.25 4.95703125 C9.99100744 7.0717955 9.99100744 7.0717955 13.125 8.82421875 C16.19348454 10.6911411 18.62378221 12.30058018 21 15 C22.0208184 20.74765145 20.83019605 25.94177727 18 31 C12.83154983 30.22473247 8.26119625 28.10523596 3.52734375 25.99609375 C-0.45056575 24.31653196 -2.89509022 23.55387854 -7 25 C-10.00679094 26.24335799 -12.96161999 27.55556158 -15.91601562 28.91601562 C-19.26953232 30.41331551 -21.24531117 31 -25 31 C-27.08386889 25.72086547 -27.57910004 20.60461531 -28 15 C-25.6736134 13.35300064 -23.34106355 11.71595181 -21 10.08984375 C-18.94746021 8.6600146 -16.90622866 7.21385185 -14.875 5.75390625 C-13.84375 5.03074219 -12.8125 4.30757812 -11.75 3.5625 C-10.79609375 2.88316406 -9.8421875 2.20382813 -8.859375 1.50390625 C-5.5272682 -0.24863626 -3.71349777 -0.51919742 0 0 Z " fill="#FFFFFF" transform="translate(457,172)"/>
<path d="M0 0 C4.78999061 0.47114662 7.13419026 2.48442451 10.6875 5.625 C15.8848869 10.13492766 21.27306821 14.17359867 27 18 C26.39889717 22.00735217 24.33397972 24.55469371 21.9375 27.75 C21.20402344 28.73484375 20.47054687 29.7196875 19.71484375 30.734375 C18.86599609 31.85585937 18.86599609 31.85585937 18 33 C13.39933553 32.40296721 9.75006197 30.46613442 5.75 28.25 C5.0912085 27.89164063 4.43241699 27.53328125 3.75366211 27.1640625 C1.83184051 26.11635292 -0.08478221 25.05972298 -2 24 C-2.98355469 23.45859375 -3.96710937 22.9171875 -4.98046875 22.359375 C-6.99122721 21.2469045 -8.99815668 20.12841033 -11 19 C-10.3493646 15.272035 -8.67559252 12.64943324 -6.625 9.5 C-6.01914062 8.5615625 -5.41328125 7.623125 -4.7890625 6.65625 C-3.25567383 4.37960307 -1.67260629 2.17541432 0 0 Z " fill="#FFFFFF" transform="translate(792,169)"/>
<path d="M0 0 C2.33599905 1.91671717 3.65947294 3.31894589 5 6 C5.41563522 10.91996107 5.52206458 15.61957205 3 20 C0 22 0 22 -3 22 C-3 22.66 -3 23.32 -3 24 C-7.6073073 24.31774533 -10.1253016 24.42909733 -14.3125 22.375 C-17.40483097 19.6422424 -18.73724492 17.93682468 -20 14 C-20.19138329 9.48654414 -19.56695814 6.02488587 -17.375 2.0625 C-12.00476571 -2.60112451 -6.28391944 -2.7048175 0 0 Z " fill="#FFFFFF" transform="translate(461,305)"/>
<path d="M0 0 C3.16645088 2.62363073 4.87863659 4.77475479 5.5078125 8.92578125 C5.78177436 14.35935813 4.88279544 17.60396909 1.1875 21.8125 C-3.02573048 24.3774583 -7.00331424 24.48761967 -11.8125 23.8125 C-15.24389495 22.12799703 -17.15577715 20.81186086 -19.25 17.625 C-20.19399597 12.90502017 -20.18544474 8.19656649 -17.73046875 3.93359375 C-13.12738118 -1.83764898 -6.64770989 -2.80681084 0 0 Z " fill="#FFFFFF" transform="translate(763.8125,166.1875)"/>
</svg>
